<?xml version="1.0" standalone="no"?>
<!DOCTYPE svg PUBLIC "-//W3C//DTD SVG 20010904//EN"
 "http://www.w3.org/TR/2001/REC-SVG-20010904/DTD/svg10.dtd">
<svg version="1.0" xmlns="http://www.w3.org/2000/svg"
 width="512.000000pt" height="512.000000pt" viewBox="0 0 512.000000 512.000000"
 preserveAspectRatio="xMidYMid meet">
<metadata>
Created by potrace 1.11, written by Peter Selinger 2001-2013
</metadata>
<g transform="translate(0.000000,512.000000) scale(0.100000,-0.100000)"
fill="#000000" stroke="none">
<path d="M0 2560 l0 -2560 2560 0 2560 0 0 2560 0 2560 -2560 0 -2560 0 0
-2560z m3240 1315 c47 -24 52 -60 48 -362 l-3 -273 -28 -27 -27 -28 -387 -3
c-432 -3 -414 0 -433 -74 -13 -45 0 -106 28 -131 12 -11 97 -29 267 -57 138
-22 275 -47 304 -56 142 -41 271 -140 322 -249 57 -119 64 -177 64 -535 0
-279 -3 -336 -18 -403 -41 -173 -144 -310 -288 -381 -130 -64 -151 -66 -757
-66 -370 0 -550 3 -564 11 -42 23 -48 62 -48 337 0 164 4 271 11 291 21 61 24
61 499 61 415 0 431 1 450 20 26 26 34 60 27 118 -9 78 -18 82 -308 131 -341
58 -414 84 -527 186 -57 52 -101 131 -129 235 -16 56 -18 112 -18 415 0 303 2
359 18 419 56 220 213 374 428 420 98 22 1028 22 1069 1z"/>
</g>
</svg>
