<?xml version="1.0" standalone="no"?>
<!DOCTYPE svg PUBLIC "-//W3C//DTD SVG 20010904//EN"
 "http://www.w3.org/TR/2001/REC-SVG-20010904/DTD/svg10.dtd">
<svg version="1.0" xmlns="http://www.w3.org/2000/svg"
 width="512.000000pt" height="512.000000pt" viewBox="0 0 512.000000 512.000000"
 preserveAspectRatio="xMidYMid meet">
<metadata>
Created by potrace 1.11, written by Peter Selinger 2001-2013
</metadata>
<g transform="translate(0.000000,512.000000) scale(0.100000,-0.100000)"
fill="#000000" stroke="none">
<path d="M2550 4080 c-773 -165 -1406 -299 -1407 -300 -2 0 -3 -684 -3 -1521
l0 -1521 23 5 c12 3 643 137 1402 297 759 160 1388 293 1398 296 16 5 17 86
17 1525 0 1209 -3 1519 -12 1518 -7 0 -645 -135 -1418 -299z m730 -226 c13
-12 15 -56 15 -279 l0 -263 -24 -26 c-13 -14 -38 -30 -55 -35 -17 -6 -191 -40
-386 -76 -195 -36 -365 -71 -377 -77 -27 -13 -53 -66 -53 -106 0 -16 10 -41
21 -56 l22 -27 306 7 c265 6 314 4 368 -9 175 -46 257 -138 283 -323 18 -123
8 -580 -14 -659 -62 -226 -231 -394 -477 -474 -75 -24 -1065 -211 -1119 -211
-75 0 -80 20 -80 296 0 250 6 281 60 309 17 9 223 52 457 95 234 44 437 87
449 95 43 28 52 150 12 177 -7 5 -134 6 -303 3 -323 -8 -381 -2 -481 46 -65
31 -112 75 -143 137 -41 81 -46 134 -46 447 0 330 5 366 66 490 83 170 259
305 469 359 129 34 956 185 985 180 16 -2 37 -11 45 -20z"/>
</g>
</svg>
