<?xml version="1.0" standalone="no"?>
<!DOCTYPE svg PUBLIC "-//W3C//DTD SVG 20010904//EN"
 "http://www.w3.org/TR/2001/REC-SVG-20010904/DTD/svg10.dtd">
<svg version="1.0" xmlns="http://www.w3.org/2000/svg"
 width="588.000000pt" height="588.000000pt" viewBox="0 0 588.000000 588.000000"
 preserveAspectRatio="xMidYMid meet">
<metadata>
Created by potrace 1.11, written by Peter Selinger 2001-2013
</metadata>
<g transform="translate(0.000000,588.000000) scale(0.100000,-0.100000)"
fill="#000000" stroke="none">
<path d="M677 5130 c0 -408 4 -747 7 -755 3 -8 2 -15 -2 -15 -4 0 -6 -72 -4
-161 3 -154 4 -162 26 -182 13 -12 61 -56 106 -97 45 -41 97 -88 115 -105 18
-16 71 -66 119 -110 49 -44 102 -93 120 -110 18 -16 74 -68 126 -115 51 -47
105 -96 120 -110 14 -14 66 -61 115 -105 48 -44 102 -93 120 -110 17 -16 68
-64 114 -105 46 -41 102 -93 126 -115 23 -22 75 -69 115 -105 40 -36 96 -88
125 -115 29 -28 63 -58 75 -66 21 -14 21 -15 -58 -89 -68 -64 -164 -153 -270
-249 -15 -13 -72 -66 -127 -116 -131 -121 -147 -136 -234 -214 -40 -36 -95
-86 -121 -111 -26 -25 -89 -83 -141 -130 -51 -47 -100 -92 -109 -100 -63 -58
-138 -126 -213 -195 -49 -44 -108 -98 -132 -120 -23 -22 -82 -76 -131 -120
-48 -44 -117 -108 -154 -141 -36 -34 -77 -72 -92 -85 -14 -13 -64 -59 -111
-102 -46 -43 -93 -84 -103 -92 -16 -12 -11 -12 31 0 28 8 59 19 70 24 11 5
130 46 265 91 135 45 252 84 260 87 8 4 17 7 20 8 27 8 162 54 280 95 80 28
152 52 160 54 8 3 76 25 150 51 74 25 142 48 150 50 8 2 65 21 125 42 61 22
115 41 120 42 6 2 15 5 20 7 75 26 343 116 350 117 7 1 11 -244 12 -717 1
-395 3 -720 5 -721 3 -4 20 26 163 300 41 77 85 160 99 185 13 25 50 96 82
158 32 61 63 112 68 112 5 0 6 3 3 6 -4 4 11 40 33 80 37 69 59 110 152 284
19 36 72 137 118 225 46 88 86 162 90 165 4 3 11 16 15 30 4 14 16 37 26 51
10 15 23 37 28 50 5 13 20 43 33 66 l24 43 40 -36 c21 -20 79 -73 128 -117 97
-90 101 -93 236 -217 51 -47 105 -96 120 -110 15 -14 64 -59 109 -100 46 -41
100 -91 121 -110 20 -19 77 -72 126 -116 49 -45 114 -104 144 -132 30 -28 56
-49 58 -48 3 3 -20 70 -39 111 -11 25 -229 586 -233 600 -2 6 -8 23 -14 38 -7
16 -12 31 -12 35 -1 4 -9 25 -20 47 -11 22 -19 43 -20 47 0 7 -83 224 -100
263 -7 16 -75 190 -115 297 -7 18 4 31 120 133 37 33 80 71 95 85 83 75 179
161 209 186 18 16 48 43 65 59 18 17 66 59 106 95 41 36 82 72 90 80 23 21
169 151 194 173 12 10 48 42 81 72 107 96 129 116 189 168 32 29 73 66 90 82
18 17 59 53 90 80 32 28 77 68 101 90 23 22 65 59 91 81 27 23 68 59 90 80 49
45 96 88 183 164 35 30 79 70 98 88 19 17 39 32 45 32 6 0 8 3 5 7 -4 3 8 17
25 30 18 12 28 24 22 25 -5 1 -475 2 -1044 3 l-1035 1 -1 912 c-1 503 -4 915
-6 918 -3 2 -38 -31 -78 -73 -66 -70 -277 -296 -340 -363 -14 -15 -77 -82
-142 -151 -64 -68 -135 -144 -158 -169 -37 -40 -235 -251 -300 -320 -115 -123
-275 -293 -309 -330 l-41 -44 -42 39 c-23 22 -72 68 -108 102 -36 34 -94 89
-130 123 -86 81 -335 319 -417 397 -36 34 -121 115 -190 180 -69 65 -156 147
-193 183 -38 36 -132 126 -210 200 -79 74 -165 156 -192 183 -28 26 -53 47
-57 47 -3 0 -5 -333 -4 -740z"/>
</g>
</svg>
